<svg viewBox="0 0 377 364" fill="none" xmlns="http://www.w3.org/2000/svg">
    <g clip-path="url(#clip0_25_521)">
        <path d="M85.1877 364C78.584 364 73.2317 358.491 73.2317 351.694V335.286C73.2317 328.49 78.584 322.979 85.1877 322.979C91.7899 322.979 97.1437 328.49 97.1437 335.286V351.694C97.1437 358.491 91.7899 364 85.1877 364Z" fill="#232024"/>
        <path d="M187.812 364C181.21 364 175.856 358.491 175.856 351.694V335.286C175.856 328.49 181.21 322.979 187.812 322.979C194.416 322.979 199.768 328.49 199.768 335.286V351.694C199.768 358.491 194.416 364 187.812 364Z" fill="#232024"/>
        <path d="M143.974 224.53H60.2829C45.4486 224.53 33.379 212.107 33.379 196.839C33.379 181.57 45.4492 169.147 60.2829 169.147C66.8866 169.147 72.2389 163.637 72.2389 156.84C72.2389 150.044 66.8866 144.534 60.2829 144.534C32.2631 144.534 9.46702 167.998 9.46702 196.839C9.46702 225.679 32.2631 249.142 60.2829 249.142H100.136V286.061C100.136 292.858 105.49 298.367 112.092 298.367C118.696 298.367 124.048 292.858 124.048 286.061V249.142H143.974C150.578 249.142 155.93 243.633 155.93 236.835C155.93 230.039 150.578 224.53 143.974 224.53Z" fill="#9E8CEC"/>
        <path d="M143.974 224.53H82.6987V249.142H100.136V286.061C100.136 292.858 105.49 298.367 112.092 298.367C118.696 298.367 124.048 292.858 124.048 286.061V249.142H143.974C150.578 249.142 155.93 243.633 155.93 236.835C155.93 230.039 150.578 224.53 143.974 224.53Z" fill="#6A56CF"/>
        <path d="M231.687 206.783L227.665 205.304V108.377L231.687 106.899C237.906 104.613 241.145 97.5708 238.926 91.1704C236.706 84.7689 229.861 81.4353 223.645 83.7201L56.262 145.252C51.5042 147.001 48.3274 151.64 48.3274 156.84C48.3274 162.041 51.5042 166.681 56.262 168.431L223.645 229.962C224.974 230.45 226.331 230.682 227.666 230.682C232.576 230.682 237.18 227.545 238.926 222.512C241.145 216.111 237.905 209.069 231.687 206.783Z" fill="#F4C514"/>
        <path d="M211.724 273.755H61.2762C54.6725 273.755 49.3202 279.264 49.3202 286.061V335.286C49.3202 342.083 54.6725 347.592 61.2762 347.592H211.724C218.328 347.592 223.68 342.083 223.68 335.286V286.061C223.68 279.264 218.328 273.755 211.724 273.755Z" fill="#E9D535"/>
        <path d="M255.676 108.761C246.964 86.349 234.387 83.0028 227.665 83.0028C220.942 83.0028 208.366 86.349 199.657 108.761C194.588 121.802 191.797 138.877 191.797 156.84C191.797 174.804 194.588 191.88 199.657 204.92C208.366 227.33 220.942 230.678 227.665 230.678C234.388 230.678 246.964 227.33 255.676 204.92C260.742 191.879 263.533 174.805 263.533 156.84C263.533 138.876 260.742 121.802 255.676 108.761Z" fill="#E9D535"/>
        <path d="M211.724 273.755H136.5V347.592H211.724C218.328 347.592 223.68 342.083 223.68 335.286V286.061C223.68 279.264 218.328 273.755 211.724 273.755Z" fill="#DD9520"/>
    </g>
    <path d="M306.875 121.333C312.191 121.333 316.5 117.229 316.5 112.167C316.5 107.104 312.191 103 306.875 103C301.559 103 297.25 107.104 297.25 112.167C297.25 117.229 301.559 121.333 306.875 121.333Z" fill="black"/>
    <rect x="311.25" y="89.6667" width="5.25" height="21.6667" fill="black"/>
    <rect x="311.25" y="84.6667" width="19.25" height="10" rx="2" fill="black"/>
    <path d="M349.229 81.2917C354.671 81.2917 359.083 77.085 359.083 71.8958C359.083 66.7067 354.671 62.5 349.229 62.5C343.787 62.5 339.375 66.7067 339.375 71.8958C339.375 77.085 343.787 81.2917 349.229 81.2917Z" fill="black"/>
    <rect x="353.708" y="48.8333" width="5.375" height="22.2083" fill="black"/>
    <rect x="353.708" y="43.7083" width="19.7083" height="10.25" rx="2" fill="black"/>
    <path d="M329.042 32.5833C333.345 32.5833 336.833 29.0949 336.833 24.7917C336.833 20.4884 333.345 17 329.042 17C324.738 17 321.25 20.4884 321.25 24.7917C321.25 29.0949 324.738 32.5833 329.042 32.5833Z" fill="black"/>
    <rect x="332.583" y="5.66666" width="4.25" height="18.4167" fill="black"/>
    <rect x="332.583" y="1.41666" width="15.5833" height="8.5" rx="2" fill="black"/>
    <defs>
        <clipPath id="clip0_25_521">
            <rect width="273" height="281" fill="white" transform="translate(0 83)"/>
        </clipPath>
    </defs>
</svg>
